<?xml version="1.0" encoding="iso-8859-1"?>
<!-- Uploaded to: SVG Repo, www.svgrepo.com, Generator: SVG Repo Mixer Tools -->
<svg version="1.1" id="Capa_1" xmlns="http://www.w3.org/2000/svg" xmlns:xlink="http://www.w3.org/1999/xlink" 
	 viewBox="0 0 512 512" xml:space="preserve">
<path style="fill:#E7E8E3;" d="M503.916,397.661c0,16.188-13.122,29.311-29.309,29.311H37.393
	c-16.188,0-29.309-13.124-29.309-29.311V114.337c0-16.188,13.122-29.31,29.309-29.31h437.212c16.187,0,29.309,13.123,29.309,29.31
	v283.326h0.002L503.916,397.661L503.916,397.661z"/>
<rect x="8.08" y="151.54" style="fill:#34495E;" width="495.83" height="69.74"/>
<rect x="8.08" y="221.29" style="fill:#FFFFFF;" width="495.83" height="43.15"/>
<g style="opacity:0.15;">
	<path style="fill:#202121;" d="M28.922,397.661V114.337c0-16.188,13.124-29.31,29.311-29.31h-20.84
		c-16.187,0-29.309,13.123-29.309,29.31v283.326c0,16.188,13.122,29.311,29.309,29.311h20.84
		C42.047,426.973,28.922,413.849,28.922,397.661z"/>
</g>
<path style="fill:#EA001B;" d="M371.201,345.28c0-14.544,6.7-27.521,17.181-36.019c-7.966-6.459-18.114-10.332-29.168-10.332
	c-25.599,0-46.351,20.752-46.351,46.351s20.752,46.351,46.351,46.351c11.054,0,21.202-3.873,29.168-10.332
	C377.901,372.801,371.201,359.824,371.201,345.28z"/>
<path style="fill:#F79F1A;" d="M417.551,298.928c-11.055,0-21.203,3.873-29.169,10.332c10.483,8.498,17.182,21.475,17.182,36.019
	s-6.7,27.521-17.182,36.019c7.967,6.459,18.115,10.332,29.169,10.332c25.599,0,46.351-20.752,46.351-46.351
	S443.149,298.928,417.551,298.928z"/>
<path style="fill:#FF5F01;" d="M405.563,345.28c0-14.544-6.7-27.521-17.182-36.019c-10.48,8.498-17.181,21.475-17.181,36.019
	s6.7,27.521,17.181,36.019C398.863,372.801,405.563,359.824,405.563,345.28z"/>
<g>
	<path style="fill:#202121;" d="M359.214,399.715c-30.016,0-54.435-24.419-54.435-54.435s24.419-54.435,54.435-54.435
		c12.441,0,24.607,4.311,34.259,12.137c1.894,1.535,2.992,3.843,2.992,6.279c0,2.437-1.101,4.744-2.992,6.279
		c-9.016,7.311-14.187,18.152-14.187,29.74s5.172,22.429,14.187,29.74c1.893,1.535,2.992,3.843,2.992,6.279
		c0,2.437-1.099,4.744-2.992,6.279C383.821,395.404,371.655,399.715,359.214,399.715z M359.214,307.013
		c-21.1,0-38.266,17.167-38.266,38.266s17.167,38.266,38.266,38.266c5.755,0,11.28-1.241,16.329-3.636
		c-7.989-9.663-12.426-21.824-12.426-34.631c0-12.806,4.437-24.967,12.426-34.631C370.494,308.254,364.969,307.013,359.214,307.013z
		"/>
	<path style="fill:#202121;" d="M417.551,399.715c-12.441,0-24.608-4.31-34.261-12.136c-1.893-1.536-2.992-3.843-2.992-6.28
		c0-2.438,1.099-4.745,2.993-6.28c9.017-7.31,14.188-18.15,14.188-29.739c0-11.59-5.172-22.429-14.188-29.739
		c-1.894-1.535-2.993-3.843-2.993-6.28s1.099-4.744,2.992-6.28c9.653-7.826,21.82-12.136,34.261-12.136
		c30.016,0,54.435,24.419,54.435,54.435C471.985,375.296,447.567,399.715,417.551,399.715z M401.22,379.911
		c5.05,2.394,10.576,3.635,16.33,3.635c21.1,0,38.266-17.167,38.266-38.266s-17.167-38.266-38.266-38.266
		c-5.755,0-11.281,1.241-16.33,3.635c7.99,9.664,12.427,21.824,12.427,34.632S409.211,370.247,401.22,379.911z"/>
	<path style="fill:#202121;" d="M388.381,389.383c-1.804,0-3.608-0.601-5.092-1.805c-12.82-10.394-20.173-25.811-20.173-42.298
		c0-16.486,7.352-31.904,20.173-42.298c2.969-2.406,7.215-2.407,10.182-0.001c12.823,10.395,20.176,25.811,20.176,42.299
		s-7.353,31.905-20.176,42.299C391.988,388.782,390.184,389.383,388.381,389.383z M388.381,320.508
		c-5.843,6.862-9.096,15.581-9.096,24.772s3.253,17.91,9.096,24.772c5.845-6.861,9.097-15.581,9.097-24.772
		C397.479,336.089,394.226,327.368,388.381,320.508z"/>
	<path style="fill:#202121;" d="M503.916,133.4c4.466,0,8.084-3.62,8.084-8.084v-10.979c0-20.619-16.775-37.394-37.393-37.394
		H37.393C16.775,76.942,0,93.718,0,114.337v283.326c0,20.62,16.775,37.395,37.393,37.395h437.212
		c20.619,0,37.393-16.776,37.393-37.395V151.546c0-4.465-3.618-8.084-8.084-8.084H16.168v-29.125
		c0-11.704,9.522-21.226,21.225-21.226h437.212c11.703,0,21.225,9.522,21.225,21.226v10.979
		C495.832,129.781,499.45,133.4,503.916,133.4z M495.832,256.354H16.168v-26.982h479.663v26.982H495.832z M474.607,418.889H37.393
		c-11.703,0-21.225-9.522-21.225-21.227v-125.14h479.663v125.14C495.832,409.367,486.309,418.889,474.607,418.889z M495.832,159.63
		v53.574H16.168V159.63H495.832z"/>
	<path style="fill:#202121;" d="M163.093,320.615H61.771c-4.466,0-8.084-3.618-8.084-8.084c0-4.466,3.618-8.084,8.084-8.084h101.322
		c4.466,0,8.084,3.618,8.084,8.084S167.558,320.615,163.093,320.615z"/>
	<path style="fill:#202121;" d="M163.093,354.219H61.771c-4.466,0-8.084-3.618-8.084-8.084s3.618-8.084,8.084-8.084h101.322
		c4.466,0,8.084,3.618,8.084,8.084S167.558,354.219,163.093,354.219z"/>
	<path style="fill:#202121;" d="M163.093,387.822H61.771c-4.466,0-8.084-3.618-8.084-8.084s3.618-8.084,8.084-8.084h101.322
		c4.466,0,8.084,3.618,8.084,8.084S167.558,387.822,163.093,387.822z"/>
</g>
</svg>